<svg enable-background="new 0 0 185 74.8" viewBox="0 0 185 74.8" xmlns="http://www.w3.org/2000/svg"><g fill="#0764ac"><path d="m9.7 69v1.8h1.7v-1.8h1.1v4.6h-1.1v-1.9h-1.7v1.9h-1v-4.6z"/><path d="m14.4 72.5-.3 1.2h-1.1l1.4-4.6h1.3l1.4 4.6h-1.1l-.3-1.2zm1.2-.8-.3-1c-.1-.3-.2-.6-.2-.9 0 .3-.1.6-.2.9l-.3 1z"/><path d="m18.9 69v3.7h1.6v-3.7h1.1v3.8h.5v1.9h-.8v-1.2h-3.2v-4.5z"/><path d="m23.6 69v1.3 2.1c.3-.5.5-1.1.8-1.6l1-1.8h1v4.6h-1v-1.3c0-.7 0-1.3.1-1.9-.2.5-.5 1.1-.8 1.6l-.9 1.6h-1.2v-4.6z"/><path d="m29.2 73.7c-1.3 0-2.1-1.1-2.1-2.4 0-1.4.9-2.4 2.2-2.4 1.4 0 2.2 1.1 2.2 2.3 0 1.6-.9 2.5-2.3 2.5zm.1-.8c.7 0 1.1-.7 1.1-1.6 0-.8-.4-1.6-1.1-1.6s-1.1.7-1.1 1.6.4 1.6 1.1 1.6z"/><path d="m33.2 69v1.8h1.7v-1.8h1v4.6h-1v-1.9h-1.7v1.9h-1.1v-4.6z"/><path d="m37.9 72.5-.3 1.2h-1.1l1.4-4.6h1.3l1.4 4.6h-1.1l-.3-1.2zm1.2-.8-.3-1c-.1-.3-.2-.6-.2-.9 0 .3-.1.6-.2.9l-.3 1z"/><path d="m44.9 69v4.6h-1v-3.7h-1v1.1c0 1.2-.2 2.1-.8 2.5-.3.1-.5.2-.9.2l-.2-.9c.2 0 .4-.1.5-.3.3-.3.3-.9.3-1.6v-2z"/><path d="m46.9 69v1.6h.5c1 0 1.8.5 1.8 1.5 0 .5-.1.8-.4 1-.5.5-1.2.6-1.9.6-.5 0-.9 0-1.1-.1v-4.6zm0 3.9h.4c.5 0 .9-.3.9-.8s-.4-.8-.9-.8c-.2 0-.3 0-.4 0z"/><path d="m51 69v1.8h1.7v-1.8h1v4.6h-1v-1.9h-1.7v1.9h-1.1v-4.6z"/><path d="m55.7 69v1.6h.5c1 0 1.8.5 1.8 1.5 0 .4-.1.8-.4 1-.5.5-1.2.6-1.9.6-.5 0-.9 0-1.1-.1v-4.6zm0 3.9h.3c.5 0 .9-.3.9-.8s-.5-.8-.9-.8c-.1 0-.3 0-.4 0zm3.8-3.9v4.6h-1.1v-4.6z"/><path d="m61.4 69v1.3 2.1c.3-.5.5-1.1.8-1.6l1-1.8h1v4.6h-1v-1.3c0-.7 0-1.3.1-1.9-.2.5-.5 1.1-.8 1.6l-.9 1.6h-1.2v-4.6zm.7-1c0 .3.1.4.3.4s.3-.2.3-.4h.7c0 .6-.4.8-1 .8s-.9-.3-1-.8z"/><path d="m67.6 69v3.7h1.6v-3.7h1.1v3.8h.5v1.9h-.8v-1.2h-3.2v-4.5z"/><path d="m74 71.7h-1.7v1.1h1.9v.8h-2.9v-4.6h2.8v.8h-1.8v1h1.7z"/><path d="m76 69v1.8h1.7v-1.8h1v4.6h-1v-1.9h-1.7v1.9h-1.1v-4.6z"/><path d="m80.5 69.9h-1.3v-.9h3.5v.9h-1.3v3.7h-1z"/><path d="m83.4 69.1c.3 0 .8-.1 1.4-.1s1.1.1 1.4.4c.3.2.5.6.5 1 0 .5-.1.8-.4 1.1s-.9.5-1.5.5c-.1 0-.3 0-.3 0v1.6h-1zm1 2.1h.3c.5 0 .9-.3.9-.8 0-.4-.3-.7-.8-.7-.2 0-.3 0-.4 0z"/><path d="m90 69v2h.1l1.3-1.9h1.3l-1.6 2.1c.6.1.8.5 1 1.1.2.5.3 1 .5 1.4h-1.1c-.2-.3-.3-.7-.3-1-.2-.5-.4-.9-.9-.9h-.3v1.9h-1v-4.7z"/><path d="m95 73.7c-1.3 0-2.1-1.1-2.1-2.4 0-1.4.9-2.4 2.2-2.4 1.4 0 2.2 1.1 2.2 2.3 0 1.6-1 2.5-2.3 2.5zm0-.9c.7 0 1.1-.7 1.1-1.6 0-.8-.4-1.6-1.1-1.6s-1.1.7-1.1 1.6c.1 1 .4 1.6 1.1 1.6z"/><path d="m100.7 69v.8h-1.7v3.7h-1.1v-4.5z"/><path d="m102.3 69v1.8h1.7v-1.8h1v4.6h-1v-1.9h-1.7v1.9h-1v-4.6z"/><path d="m106.9 69v1.3 2.1c.3-.5.5-1.1.8-1.6l1-1.8h1.1v4.6h-1v-1.3c0-.7 0-1.3.1-1.9-.2.5-.5 1.1-.8 1.6l-.9 1.6h-1.2v-4.6z"/><path d="m111.5 69.9h-1.3v-.9h3.5v.9h-1.3v3.7h-1.1z"/><path d="m115.4 69v1.3 2.1c.3-.5.5-1.1.8-1.6l1-1.8h1.1v4.6h-1v-1.3c0-.7 0-1.3.1-1.9-.2.5-.5 1.1-.8 1.6l-.9 1.6h-1.2v-4.6z"/><path d="m119.1 69.1c.3 0 .8-.1 1.3-.1.6 0 1 0 1.3.3.3.2.5.5.5.9s-.3.8-.8 1c.5.1.9.5.9 1.1 0 .4-.2.8-.5 1-.3.3-.9.4-1.8.4-.5 0-.9 0-1.1-.1zm1.1 1.7h.3c.5 0 .8-.2.8-.5s-.3-.5-.8-.5c-.3 0-.4 0-.5 0zm0 2h.4c.5 0 .9-.2.9-.7s-.4-.6-.9-.6h-.4z"/><path d="m124.3 69v1.8h1.7v-1.8h1.1v4.6h-1.1v-1.9h-1.7v1.9h-1v-4.6z"/><path d="m129 69v1.6h.5c1 0 1.8.5 1.8 1.5 0 .4-.1.8-.4 1-.5.5-1.2.6-1.9.6-.5 0-.9 0-1.1-.1v-4.6zm0 3.8h.3c.5 0 .9-.3.9-.8s-.5-.8-.9-.8c-.1 0-.3 0-.4 0zm3.8-3.8v4.6h-1v-4.6z"/><path d="m136.2 73.6-.4-.8c-.2-.3-.3-.5-.4-.8-.1.3-.2.5-.4.8l-.4.8h-1.2l1.3-2.3-1.3-2.3h1.2l.4.8c.1.3.3.5.3.8.1-.3.2-.5.3-.8l.4-.8h1.2l-1.3 2.2 1.3 2.4z"/><path d="m139.3 69.1c.3 0 .8-.1 1.4-.1s1.1.1 1.4.4c.3.2.5.6.5 1.1s-.1.8-.4 1.1-.9.5-1.5.5c-.1 0-.3 0-.3 0v1.6h-1.1zm1 2.1h.3c.5 0 .9-.3.9-.8 0-.4-.3-.7-.8-.7-.2 0-.3 0-.4 0z"/><path d="m143.9 72.4-.3 1.2h-1.1l1.4-4.6h1.3l1.4 4.6h-1.1l-.3-1.2zm1.2-.8-.3-1c-.1-.3-.2-.6-.2-.9 0 .3-.1.6-.2.9l-.3 1z"/><path d="m147.2 69.3c.3-.2.8-.4 1.4-.4 1 0 1.6.5 1.6 1.2 0 .6-.4 1-.9 1.1.6.1 1.1.5 1.1 1.1 0 1-1.1 1.4-1.9 1.4-.5 0-1-.1-1.4-.3l.2-.8c.2.1.7.3 1.1.3.5 0 .8-.2.8-.6 0-.5-.5-.6-1-.6h-.4v-.8h.4c.5 0 .8-.2.8-.6 0-.3-.3-.5-.7-.5-.3 0-.8.1-1 .3z"/><path d="m151.1 69.1c.3 0 .8-.1 1.4-.1s1.1.1 1.4.4c.3.2.5.6.5 1.1s-.1.8-.4 1.1-.9.5-1.5.5c-.1 0-.3 0-.3 0v1.6h-1.2zm1 2.1h.3c.5 0 .9-.3.9-.8 0-.4-.3-.7-.8-.7-.2 0-.3 0-.4 0z"/><path d="m155.6 72.4-.3 1.2h-1.1l1.4-4.6h1.3l1.4 4.6h-1.1l-.3-1.2zm1.2-.8-.3-1c-.1-.3-.2-.6-.2-.9 0 .3-.1.6-.2.9l-.3 1z"/><path d="m162.1 69v.8h-2v.8h.5c.5 0 1 .1 1.3.4s.5.6.5 1.1-.2.8-.4 1.1c-.5.4-1.2.5-1.9.5-.5 0-.9 0-1.1-.1v-4.6zm-2 3.8h.4c.3 0 .5-.1.7-.3.1-.1.2-.3.2-.5 0-.3-.1-.4-.3-.5s-.5-.2-.7-.2c-.1 0-.3 0-.4 0z"/><path d="m165.1 73.7c-1.3 0-2.1-1.1-2.1-2.4 0-1.4.9-2.4 2.2-2.4 1.4 0 2.2 1.1 2.2 2.3 0 1.6-1 2.5-2.3 2.5zm0-.9c.7 0 1.1-.7 1.1-1.6 0-.8-.4-1.6-1.1-1.6s-1.1.7-1.1 1.6c0 1 .5 1.6 1.1 1.6z"/><path d="m168.9 69.9h-1.3v-.9h3.5v.9h-1.3v3.7h-1v-3.7z"/><path d="m173.5 73.7c-1.3 0-2.1-1.1-2.1-2.4 0-1.4.9-2.4 2.2-2.4 1.4 0 2.2 1.1 2.2 2.3-.1 1.6-1 2.5-2.3 2.5zm0-.9c.7 0 1.1-.7 1.1-1.6 0-.8-.4-1.6-1.1-1.6s-1.1.7-1.1 1.6c0 1 .4 1.6 1.1 1.6z"/><path d="m177.4 69v2h.1l1.3-1.9h1.3l-1.6 2.1c.6.1.8.5 1.1 1.1.2.5.3 1 .5 1.4h-1.1c-.2-.3-.3-.7-.3-1-.2-.5-.4-.9-.9-.9h-.2v1.9h-1v-4.7z"/></g><circle cx="32.6" cy="40.2" fill="#da1c51" r="7.3"/><g fill="#0764ac"><path d="m36.5 23.3c0 .8.6 1.5 1.5 1.5s1.5-.6 1.5-1.5-.6-1.5-1.5-1.5-1.5.7-1.5 1.5z"/><path d="m42.2 45.7c0-.8-.6-1.5-1.5-1.5-.8 0-1.5.6-1.5 1.5 0 .8.6 1.5 1.5 1.5.9-.1 1.5-.7 1.5-1.5z"/><path d="m64 35.4c-.8 0-1.5.6-1.5 1.5s.6 1.5 1.5 1.5c.8 0 1.5-.6 1.5-1.5s-.7-1.5-1.5-1.5z"/><path d="m59.8 18.2c.8 0 1.5-.6 1.5-1.5 0-.8-.6-1.5-1.5-1.5s-1.5.6-1.5 1.5.7 1.5 1.5 1.5z"/><path d="m55.2 27.3c0-.8-.6-1.5-1.5-1.5s-1.5.6-1.5 1.5c0 .8.6 1.5 1.5 1.5s1.5-.7 1.5-1.5z"/><path d="m41.8 10.3c0 .8.6 1.5 1.5 1.5s1.5-.6 1.5-1.5-.6-1.5-1.5-1.5-1.5.7-1.5 1.5z"/><path d="m11 11.5c.8 0 1.5-.6 1.5-1.5s-.7-1.5-1.5-1.5-1.5.7-1.5 1.5.6 1.5 1.5 1.5z"/><path d="m1.5 29.7c.8 0 1.5-.6 1.5-1.5 0-.8-.6-1.5-1.5-1.5s-1.5.7-1.5 1.5.6 1.5 1.5 1.5z"/><path d="m7.5 50.6c-.8 0-1.5.6-1.5 1.5s.6 1.5 1.5 1.5 1.5-.7 1.5-1.5-.7-1.5-1.5-1.5z"/><path d="m3.6 43.8c-.8 0-1.5.6-1.5 1.5s.6 1.5 1.5 1.5c.8 0 1.5-.6 1.5-1.5s-.7-1.5-1.5-1.5z"/><path d="m54 34.4c.8 0 1.5-.6 1.5-1.5 0-.8-.6-1.5-1.5-1.5s-1.5.6-1.5 1.5c0 .8.7 1.5 1.5 1.5z"/><path d="m48.5 42.3c-.8 0-1.5.6-1.5 1.5s.6 1.5 1.5 1.5 1.5-.6 1.5-1.5-.7-1.5-1.5-1.5z"/><ellipse cx="28.1" cy="31.5" rx="2.1" ry="2.1"/><circle cx="61.5" cy="21.8" r="2.1"/><ellipse cx="42.8" cy="3.7" rx="2.1" ry="2.1"/><circle cx="18.5" cy="5.4" r="2.1"/><ellipse cx="17.2" cy="10.2" rx="2.1" ry="2.1"/><circle cx="2.6" cy="32.9" r="2.1"/><ellipse cx="2.5" cy="39.8" rx="2.1" ry="2.1"/><path d="m32.1 48.4c-.8 0-1.5.6-1.5 1.5s.6 1.5 1.5 1.5c.8 0 1.5-.6 1.5-1.5s-.7-1.5-1.5-1.5z"/><ellipse cx="53.9" cy="51" rx="2.1" ry="2.1"/><ellipse cx="56.8" cy="41.7" rx="6.6" ry="6.6"/><circle cx="45.9" cy="50.4" r="5"/><circle cx="60.5" cy="29.6" r="5"/><ellipse cx="8.9" cy="15.8" rx="3.7" ry="3.7"/><ellipse cx="25.5" cy="4.5" rx="3.7" ry="3.7"/><ellipse cx="53.1" cy="13.8" rx="5" ry="5"/><circle cx="35.2" cy="5" r="5"/><ellipse cx="33.3" cy="27.6" rx="3.7" ry="3.7"/><circle cx="36.8" cy="51.1" r="2.9"/><circle cx="54.4" cy="22.2" r="2.9"/><ellipse cx="47.9" cy="6.9" rx="2.9" ry="2.9"/><circle cx="3.9" cy="23.9" r="2.9"/><path d="m100.7 21.9h-2.5c-1 0-1.9.8-1.9 1.9v1.2 2.4 5h-8.6v-5-2.4-1.3c0-1-.8-1.9-1.9-1.9h-2.5c-1 0-1.9.8-1.9 1.9v1.3 2.4 18.6 2.4 1.3c0 1 .8 1.9 1.9 1.9h2.5c1 0 1.9-.8 1.9-1.9v-1.3-2.4-7.5h8.6v7.5 1.2 2.4c0 1 .8 1.9 1.9 1.9h2.5c1 0 1.9-.8 1.9-1.9v-2.4-1.2-18.7-2.3-1.3c0-1-.8-1.8-1.9-1.8z"/><path d="m174.8 21.9h-6.8-1.3-1.3c-1 0-1.9.8-1.9 1.9v1.2 2.4 18.6 2.4 1.3c0 1 .8 1.9 1.9 1.9h2.5c1 0 1.9-.8 1.9-1.9v-1.3-2.4-3.9h5c5.6 0 10.2-4.5 10.2-10.2 0-5.5-4.6-10-10.2-10zm0 14h-5v-7.9h5c2.2 0 3.9 1.8 3.9 3.9s-1.8 4-3.9 4z"/><path d="m133.2 47.1c0-1-.8-1.9-1.9-1.9h-1.3v-18-2.2-1.3c0-1-.8-1.9-1.9-1.9h-2.5c-1 0-1.9.8-1.9 1.9v1.3 2.4 18h-8.6v-18-2.4-1.3c0-1-.8-1.9-1.9-1.9h-2.5c-1 0-1.9.8-1.9 1.9v1.3 23.4 1.3c0 1 .8 1.9 1.9 1.9h1.3 1.3 13.6v.2 1.5 1.3c0 1 .8 1.9 1.9 1.9h2.5c1 0 1.9-.8 1.9-1.9v-1.3-1.5-1.8-1.5z"/><path d="m156.7 21.9h-1.8-1.6c-.7 0-1.3.4-1.6 1l-4.9 9.4h-3.7v-5-2.3-1.3c0-1-.8-1.9-1.9-1.9h-2.5c-1 0-1.9.8-1.9 1.9v1.3 2.4 14.9 3.7 1 1.3 1.3c0 1 .8 1.9 1.9 1.9h2.5c1 0 1.9-.8 1.9-1.9v-1.3-1.3-1-3.8-3.7h4.7c2.2 0 3.9 1.8 3.9 3.9v3.6 2.4 1.3c0 1 .8 1.9 1.9 1.9h2.5c1 0 1.9-.8 1.9-1.9v-1.3-2.4-3.8c0-.2 0-.3 0-.5-.3-3.4-2.1-6.3-4.9-7.9l3.8-7.4 1.1-2.4c.1-.2.2-.4.2-.6v-.1c0-.8-.7-1.4-1.5-1.4z"/></g></svg>